<svg xmlns="http://www.w3.org/2000/svg" xmlns:xlink="http://www.w3.org/1999/xlink" width="50" height="50" viewBox="0 0 50 50">
  <defs>
    <clipPath id="clip-Marketing">
      <rect width="50" height="50"/>
    </clipPath>
  </defs>
  <g id="Marketing" clip-path="url(#clip-Marketing)">
    <path id="Path_8807" data-name="Path 8807" d="M2496.291,805.987a7.748,7.748,0,0,0-4.128-4.271v-8.7a3.071,3.071,0,0,0-.981-2.152,3,3,0,0,0-2.218-.824,3.1,3.1,0,0,0-2.022.848,1.912,1.912,0,0,0-.159.173c-2.132,2.643-8.886,9.508-14.466,9.508h-16.933a3.263,3.263,0,0,0-3.259,3.259v.626a5.8,5.8,0,0,0,0,7.8v.623a3.262,3.262,0,0,0,3.259,3.259h4.376v14.093a2.507,2.507,0,0,0,2.5,2.5h6.748a3.262,3.262,0,0,0,3.257-3.26,3.228,3.228,0,0,0-.147-.964c-.224-.717-.525-1.459-.854-2.255a20.123,20.123,0,0,1-1.637-5.617,3.263,3.263,0,0,0,2.919-3.241v-1.244c5.537.187,12.13,6.914,14.231,9.533a1.581,1.581,0,0,0,.225.234,3.132,3.132,0,0,0,4.41-.332,3.193,3.193,0,0,0,.749-1.915v-8.7a7.84,7.84,0,0,0,3.809-3.523A6.758,6.758,0,0,0,2496.291,805.987Zm-34.3,6.654v-8.572h10.082v8.572h-2.676c-.034,0-.066-.009-.1-.009h-1.51c-.018,0-.033.009-.051.009Zm-6.365-.972a1.785,1.785,0,0,0,0-.616v-6.984h2.867v8.572h-2.867Zm12.16,5.49a1.749,1.749,0,0,0-1.75,1.749,21.256,21.256,0,0,0,2,8.681c.245.6.478,1.156.654,1.65h-5.429v-13.1h5.794v1.02Zm7.785-4.021v-9.564c5.8-1.646,11.092-7.072,13.1-9.333l.007,28.276C2486.667,820.246,2481.367,814.79,2475.566,813.137Zm17.286-3.267a3.957,3.957,0,0,1-.69.927v-4.87a3.823,3.823,0,0,1,.849,1.279A3.259,3.259,0,0,1,2492.852,809.87Z" transform="matrix(0.966, -0.259, 0.259, 0.966, -2573.447, -118.012)" fill="#fff"/>
  </g>
</svg>
