<svg xmlns="http://www.w3.org/2000/svg" xmlns:xlink="http://www.w3.org/1999/xlink" width="50" height="50" viewBox="0 0 50 50">
  <defs>
    <clipPath id="clip-Notification">
      <rect width="50" height="50"/>
    </clipPath>
  </defs>
  <g id="Notification" clip-path="url(#clip-Notification)">
    <g id="Group_8446" data-name="Group 8446" transform="translate(-1589.79 -53.521)">
      <path id="Icon_material-notifications-none" data-name="Icon material-notifications-none" d="M25.692,51.75a4.938,4.938,0,0,0,4.923-4.923H20.769A4.938,4.938,0,0,0,25.692,51.75ZM40.462,36.981V24.673c0-7.557-4.012-13.883-11.077-15.557V7.442a3.692,3.692,0,0,0-7.385,0V9.116c-7.04,1.674-11.077,7.975-11.077,15.557V36.981L6,41.9v2.462H45.385V41.9Zm-4.923,2.462H15.846V24.673c0-6.1,3.717-11.077,9.846-11.077s9.846,4.972,9.846,11.077Z" transform="translate(1588.79 50.771)" fill="#1a1a26"/>
    </g>
  </g>
</svg>
