<svg xmlns="http://www.w3.org/2000/svg" xmlns:xlink="http://www.w3.org/1999/xlink" width="50" height="50" viewBox="0 0 50 50">
  <defs>
    <clipPath id="clip-Sales">
      <rect width="50" height="50"/>
    </clipPath>
  </defs>
  <g id="Sales" clip-path="url(#clip-Sales)">
    <g id="Group_8469" data-name="Group 8469" transform="translate(-2536.319 -738.77)">
      <g id="Group_8438" data-name="Group 8438" transform="translate(2537.319 745.77)">
        <path id="Path_8751" data-name="Path 8751" d="M2582.379,745.77h-42.112a2.95,2.95,0,0,0-2.948,2.95v30.427a2.946,2.946,0,0,0,2.939,2.955h42.114a2.947,2.947,0,0,0,2.947-2.947V748.723A2.948,2.948,0,0,0,2582.379,745.77Zm-1.825,31.487v0h-38.469V750.615h38.469Z" transform="translate(-2537.319 -745.77)" fill="#fff"/>
      </g>
      <path id="Path_8750" data-name="Path 8750" d="M2553.122,768.1a1.875,1.875,0,0,1-1.326-.55l-2.619-2.618-3.186,2.638a1.877,1.877,0,0,1-2.47-2.827l.077-.065,4.5-3.727a1.876,1.876,0,0,1,2.525.12l2.177,2.178,4.8-7.478a1.876,1.876,0,0,1,3.267.213l2.839,5.991,5.472-9.618a1.879,1.879,0,0,1,3.267,1.857h0l-7.254,12.756a1.892,1.892,0,0,1-1.7.947,1.871,1.871,0,0,1-1.633-1.075l-2.927-6.2-4.231,6.591a1.875,1.875,0,0,1-1.579.863Z" transform="translate(3.706 3.761)" fill="#fff"/>
    </g>
  </g>
</svg>
