<svg xmlns="http://www.w3.org/2000/svg" xmlns:xlink="http://www.w3.org/1999/xlink" width="50" height="50" viewBox="0 0 50 50">
  <defs>
    <clipPath id="clip-Setup_Configurations">
      <rect width="50" height="50"/>
    </clipPath>
  </defs>
  <g id="Setup_Configurations" data-name="Setup &amp; Configurations" clip-path="url(#clip-Setup_Configurations)">
    <g id="settings-outline-badged" transform="translate(-1)">
      <path id="Path_8774" data-name="Path 8774" d="M11.1,21.182A10.182,10.182,0,1,0,21.282,11,10.119,10.119,0,0,0,11.1,21.182Zm17.455,0a7.273,7.273,0,1,1-7.273-7.273A7.2,7.2,0,0,1,28.555,21.182Z" transform="translate(4.136 4.545)" fill="#fff"/>
      <path id="Path_8775" data-name="Path 8775" d="M46.8,20.473l-4.073-1.309-.145-.436a14.6,14.6,0,0,1-3.491-.582,22.379,22.379,0,0,1,1.164,2.764l.145.727,5.236,1.6v4.073l-5.236,1.6-.145.727-1.309,3.055-.436.727,2.618,4.8-2.909,2.909-4.8-2.618-.727.436a13.809,13.809,0,0,1-3.055,1.309l-.727.145-1.6,5.236H23.236l-1.6-5.236-.727-.145-3.055-1.309-.727-.436-4.8,2.618L9.418,38.218l2.618-4.8-.436-.727a13.809,13.809,0,0,1-1.309-3.055l-.145-.727-5.236-1.6V23.236l4.945-1.455.291-.727a12.346,12.346,0,0,1,1.309-3.2l.436-.727-2.473-4.8,2.909-2.909,4.655,2.618.727-.436a12.346,12.346,0,0,1,3.2-1.309L21.636,10l1.6-5.091h4.073L28.909,10l.727.291A15.763,15.763,0,0,1,32.4,11.455a10.043,10.043,0,0,1-.582-3.636l-.582-.291L29.927,3.455A2.455,2.455,0,0,0,27.745,2H22.8a2.039,2.039,0,0,0-2.036,1.745L19.455,7.818a6.426,6.426,0,0,0-2.327.873L13.345,6.655a2.446,2.446,0,0,0-2.764.436L7.091,10.582a2.446,2.446,0,0,0-.436,2.764l1.891,3.636c-.291.727-.582,1.6-.873,2.327L3.6,20.618A2.364,2.364,0,0,0,2,22.8v4.945a2.317,2.317,0,0,0,1.745,2.182l4.073,1.309.873,2.182L6.655,37.2a2.446,2.446,0,0,0,.436,2.764l3.491,3.491a2.446,2.446,0,0,0,2.764.436l3.782-2.036,2.182.873,1.309,4.218a2.364,2.364,0,0,0,2.182,1.6h4.945a2.364,2.364,0,0,0,2.182-1.6l1.309-4.218,2.182-.873L37.2,43.891a2.446,2.446,0,0,0,2.764-.436l3.491-3.491a2.446,2.446,0,0,0,.436-2.764l-2.036-3.782.873-2.182,4.218-1.309a2.364,2.364,0,0,0,1.6-2.182V22.8A2.49,2.49,0,0,0,46.8,20.473Z" transform="translate(0 0.455)" fill="#fff"/>
      <path id="Path_8776" data-name="Path 8776" d="M39.545,8.273A7.273,7.273,0,1,1,32.273,1a7.273,7.273,0,0,1,7.273,7.273Z" transform="translate(10.455 0)" fill="#fff"/>
    </g>
  </g>
</svg>
