<svg xmlns="http://www.w3.org/2000/svg" xmlns:xlink="http://www.w3.org/1999/xlink" width="50" height="50" viewBox="0 0 50 50">
  <defs>
    <clipPath id="clip-Support">
      <rect width="50" height="50"/>
    </clipPath>
  </defs>
  <g id="Support" clip-path="url(#clip-Support)">
    <g id="Group_8473" data-name="Group 8473" transform="translate(-2536.412 -789.454)">
      <path id="Path_8766" data-name="Path 8766" d="M2554.516,790.454h2.532a2.38,2.38,0,0,0,.357.08,16.636,16.636,0,0,1,6.194,1.689,18.043,18.043,0,0,1,10.43,15.155.786.786,0,0,0,.633.8,15.283,15.283,0,0,1,10.207,10.617,29.71,29.71,0,0,1,.583,2.975v2.342a2.812,2.812,0,0,0-.082.361,15.7,15.7,0,0,1-1.875,6.037,1.1,1.1,0,0,0-.08.731c.591,2.2,1.207,4.39,1.814,6.584.048.167.082.338.135.557-2.367-.655-4.653-1.28-6.933-1.924a1.3,1.3,0,0,0-1.092.1,14.912,14.912,0,0,1-6.6,1.875,15.525,15.525,0,0,1-15.593-10.867.6.6,0,0,0-.633-.515,17.7,17.7,0,0,1-7.648-2.272,1,1,0,0,0-.833-.1c-2.041.574-4.087,1.136-6.13,1.7-.77.213-1.541.422-2.357.646.032-.142.043-.2.059-.26.758-2.735,1.521-5.469,2.26-8.208a1.138,1.138,0,0,0-.061-.779,17.638,17.638,0,0,1-1.843-13.132c1.851-7.279,6.52-11.859,13.8-13.73C2552.658,790.692,2553.6,790.608,2554.516,790.454Zm-12.952,32.536c.152-.036.237-.055.323-.078,1.5-.414,3.011-.817,4.508-1.252a1.062,1.062,0,0,1,.957.139,15.342,15.342,0,0,0,11.247,2.232,15.506,15.506,0,1,0-16.382-7.8,3.5,3.5,0,0,1,.344,3.2C2542.146,820.57,2541.9,821.765,2541.565,822.99Zm39.783,11.36c-.317-1.153-.589-2.238-.923-3.3a1.34,1.34,0,0,1,.192-1.252,12.672,12.672,0,0,0-2.243-16.348,12.181,12.181,0,0,0-4.3-2.515q-2.581,13.589-16.133,16.139c.034.1.07.235.119.363a12.323,12.323,0,0,0,3.418,4.964,12.629,12.629,0,0,0,15.4,1.166,1.179,1.179,0,0,1,1.083-.167C2579.059,833.73,2580.168,834.021,2581.348,834.35Z" fill="#fff" stroke="#fff" stroke-width="0.5"/>
      <path id="Path_8767" data-name="Path 8767" d="M2546.916,800.495h-2.793a5.488,5.488,0,0,1,2.552-4.667,5.615,5.615,0,0,1,6.927,8.784c-.7.669-1.415,1.322-2.142,1.96a.849.849,0,0,0-.314.729c.02.574.006,1.149.006,1.73h-2.812c0-1.1-.011-2.171.014-3.244,0-.15.167-.321.3-.443,1.016-.946,2.059-1.867,3.062-2.83a2.759,2.759,0,0,0,.593-3.151,2.805,2.805,0,0,0-5.333.739C2546.955,800.223,2546.937,800.345,2546.916,800.495Z" transform="translate(6.037 3.995)" fill="#fff" stroke="#fff" stroke-width="0.5"/>
      <path id="Path_8768" data-name="Path 8768" d="M2546.354,806.6v-2.755h2.752V806.6Z" transform="translate(8.044 12.045)" fill="#fff" stroke="#fff" stroke-width="0.5"/>
    </g>
  </g>
</svg>
