<svg xmlns="http://www.w3.org/2000/svg" xmlns:xlink="http://www.w3.org/1999/xlink" width="50" height="50" viewBox="0 0 50 50">
  <defs>
    <clipPath id="clip-System">
      <rect width="50" height="50"/>
    </clipPath>
  </defs>
  <g id="System" clip-path="url(#clip-System)">
    <g id="server" transform="translate(0 -2)">
      <path id="Path_8778" data-name="Path 8778" d="M14.4,9a2.4,2.4,0,1,0,0,4.8H28.8a2.4,2.4,0,1,0,0-4.8Z" transform="translate(3.6 3.6)" fill="#fff"/>
      <path id="Path_8779" data-name="Path 8779" d="M14.4,15a2.4,2.4,0,1,0,0,4.8H28.8a2.4,2.4,0,1,0,0-4.8Z" transform="translate(3.6 7.2)" fill="#fff"/>
      <path id="Path_8780" data-name="Path 8780" d="M21.3,26.4A2.4,2.4,0,1,1,18.9,24,2.4,2.4,0,0,1,21.3,26.4Z" transform="translate(6.3 12.6)" fill="#fff"/>
      <path id="Path_8781" data-name="Path 8781" d="M6,10.2A7.2,7.2,0,0,1,13.2,3h24a7.2,7.2,0,0,1,7.2,7.2V43.8A7.2,7.2,0,0,1,37.2,51h-24A7.2,7.2,0,0,1,6,43.8Zm7.2-2.4h24a2.4,2.4,0,0,1,2.4,2.4V43.8a2.4,2.4,0,0,1-2.4,2.4h-24a2.4,2.4,0,0,1-2.4-2.4V10.2A2.4,2.4,0,0,1,13.2,7.8Z" transform="translate(0 0)" fill="#fff" fill-rule="evenodd"/>
    </g>
  </g>
</svg>
