<svg xmlns="http://www.w3.org/2000/svg" xmlns:xlink="http://www.w3.org/1999/xlink" width="30" height="30" viewBox="0 0 50 50">
  <defs>
    <clipPath id="clip-Total_Product_Brand">
      <rect width="50" height="50"/>
    </clipPath>
  </defs>
  <g id="Total_Product_Brand" data-name="Total Product Brand" clip-path="url(#clip-Total_Product_Brand)">
    <g id="Group_8447" data-name="Group 8447" transform="translate(-2641.043 -648.471)">
      <path id="Path_8794" data-name="Path 8794" d="M2867.386,664.4q-4.421,12.666-8.846,25.331a7.083,7.083,0,0,1-6.9,4.864,7,7,0,0,1-6.494-9.216c1.719-5.031,3.533-10.029,5.308-15.041,1.072-3.028,2.139-6.057,3.225-9.08a7.046,7.046,0,0,1,13.6,1.1c.026.151.068.3.1.45Zm-14.154,23.181a1.4,1.4,0,0,0-1.368-1.427,1.4,1.4,0,1,0-.041,2.809A1.394,1.394,0,0,0,2853.232,687.584Zm5.708-24.008a1.394,1.394,0,0,0,1.4,1.389,1.405,1.405,0,1,0-.031-2.81A1.4,1.4,0,0,0,2858.94,663.577Z" transform="translate(-177.342 -1.792)"/>
      <path id="Path_8795" data-name="Path 8795" d="M2667.37,863.607h-.53q-8.832,0-17.666,0a7.055,7.055,0,0,1-7.127-7.367,6.954,6.954,0,0,1,6.1-6.6.869.869,0,0,1,.552.14q9.238,6.807,18.462,13.633C2667.208,863.443,2667.247,863.488,2667.37,863.607Zm-18.291-8.446a1.409,1.409,0,0,0-1.4,1.4,1.443,1.443,0,0,0,1.4,1.413,1.414,1.414,0,0,0,1.412-1.436A1.387,1.387,0,0,0,2649.08,855.161Z" transform="translate(0 -170.717)"/>
      <path id="Path_8796" data-name="Path 8796" d="M2791.433,681.059c-.2-.653-.366-1.185-.528-1.718q-2.4-7.854-4.79-15.709a7,7,0,0,1,6.916-9.157,6.657,6.657,0,0,1,6.081,4,1.118,1.118,0,0,1,.04.781q-3.409,9.687-6.852,19.363Zm1.406-18.156a1.388,1.388,0,0,0,1.385-1.4,1.4,1.4,0,1,0-2.809.036A1.4,1.4,0,0,0,2792.839,662.9Z" transform="translate(-125.744)"/>
      <path id="Path_8797" data-name="Path 8797" d="M2699.592,750.98c-.19-.13-.315-.21-.434-.3q-7.063-5.218-14.125-10.439a7.048,7.048,0,0,1,.681-11.888,6.737,6.737,0,0,1,6.717-.007.945.945,0,0,1,.429.5q3.349,10.911,6.669,21.83C2699.551,750.744,2699.56,750.819,2699.592,750.98ZM2687.736,734.5a1.386,1.386,0,0,0,1.368,1.421,1.4,1.4,0,1,0,.034-2.809A1.389,1.389,0,0,0,2687.736,734.5Z" transform="translate(-35.035 -63.842)"/>
    </g>
  </g>
</svg>
