<svg xmlns="http://www.w3.org/2000/svg" xmlns:xlink="http://www.w3.org/1999/xlink" width="50" height="50" viewBox="0 0 50 50">
  <defs>
    <clipPath id="clip-Uploaded_Files">
      <rect width="50" height="50"/>
    </clipPath>
  </defs>
  <g id="Uploaded_Files" data-name="Uploaded Files" clip-path="url(#clip-Uploaded_Files)">
    <g id="file-earmark-arrow-down" transform="translate(-0.5 -1.25)">
      <path id="Path_8756" data-name="Path 8756" d="M11.357,2.25H28.5V5.679H11.357A3.429,3.429,0,0,0,7.929,9.107V43.393a3.429,3.429,0,0,0,3.429,3.429H38.786a3.429,3.429,0,0,0,3.429-3.429v-24h3.429v24a6.857,6.857,0,0,1-6.857,6.857H11.357A6.857,6.857,0,0,1,4.5,43.393V9.107A6.857,6.857,0,0,1,11.357,2.25Z" transform="translate(0 0)" fill="#fff"/>
      <path id="Path_8757" data-name="Path 8757" d="M20.25,14.25v-12L37.393,19.393h-12A5.143,5.143,0,0,1,20.25,14.25Z" transform="translate(8.25)" fill="#fff"/>
      <path id="Path_8758" data-name="Path 8758" d="M12.877,20.752a1.714,1.714,0,0,1,2.427,0L20.947,26.4l5.644-5.647a1.716,1.716,0,0,1,2.427,2.427l-6.857,6.857a1.714,1.714,0,0,1-2.427,0l-6.857-6.857a1.714,1.714,0,0,1,0-2.427Z" transform="translate(4.124 9.428)" fill="#fff" fill-rule="evenodd"/>
      <path id="Path_8759" data-name="Path 8759" d="M18.589,13.5A1.714,1.714,0,0,1,20.3,15.214V28.929a1.714,1.714,0,1,1-3.429,0V15.214A1.714,1.714,0,0,1,18.589,13.5Z" transform="translate(6.482 5.893)" fill="#fff" fill-rule="evenodd"/>
    </g>
  </g>
</svg>
