<svg xmlns="http://www.w3.org/2000/svg" xmlns:xlink="http://www.w3.org/1999/xlink" width="50" height="50" viewBox="0 0 50 50">
  <defs>
    <clipPath id="clip-Web">
      <rect width="50" height="50"/>
    </clipPath>
  </defs>
  <g id="Web" clip-path="url(#clip-Web)">
    <path id="Icon_ionic-ios-globe" data-name="Icon ionic-ios-globe" d="M27.369,3.375h-.081A23.994,23.994,0,0,0,27.3,51.363h.081a23.994,23.994,0,1,0-.012-47.988ZM48.157,25.754H39.2a45.429,45.429,0,0,0-1.131-8.79,35.142,35.142,0,0,0,5.733-2.422A20.667,20.667,0,0,1,48.157,25.754Zm-22.4,0H18.625a41,41,0,0,1,1.015-7.971,35.1,35.1,0,0,0,6.114.819Zm0,3.23v7.141a35.245,35.245,0,0,0-6.114.819,41,41,0,0,1-1.015-7.96Zm3.23,0h7.071a40.762,40.762,0,0,1-1.015,7.948,34.433,34.433,0,0,0-6.056-.807Zm0-3.23V18.6a35.246,35.246,0,0,0,6.056-.807,40.882,40.882,0,0,1,1.015,7.96Zm12.62-13.6a32.047,32.047,0,0,1-4.384,1.788,23.818,23.818,0,0,0-3.057-6.287A20.875,20.875,0,0,1,41.6,12.154Zm-7.429,2.619a32.465,32.465,0,0,1-5.191.692V7C30.945,8.058,32.86,10.908,34.175,14.772ZM25.754,6.951v8.5a31.905,31.905,0,0,1-5.249-.7C21.844,10.85,23.782,8,25.754,6.951Zm-5.26.738A24.006,24.006,0,0,0,17.46,13.93a32.768,32.768,0,0,1-4.326-1.776A20.562,20.562,0,0,1,20.494,7.689Zm-9.563,6.864a34.446,34.446,0,0,0,5.676,2.4,43.6,43.6,0,0,0-1.13,8.79H6.593A20.561,20.561,0,0,1,10.931,14.553ZM6.582,28.984h8.882a45.311,45.311,0,0,0,1.13,8.79,36.548,36.548,0,0,0-5.676,2.4A20.67,20.67,0,0,1,6.582,28.984Zm6.541,13.6a32.286,32.286,0,0,1,4.337-1.776,24.092,24.092,0,0,0,3.034,6.252A21.074,21.074,0,0,1,13.123,42.585Zm7.383-2.607a32.073,32.073,0,0,1,5.249-.7v8.513C23.77,46.738,21.844,43.877,20.505,39.978Zm8.479,7.764V39.263a32.466,32.466,0,0,1,5.191.692C32.86,43.831,30.945,46.68,28.984,47.741Zm5.191-.658A23.818,23.818,0,0,0,37.232,40.8a31.52,31.52,0,0,1,4.384,1.8A21.114,21.114,0,0,1,34.175,47.084Zm9.632-6.9a35.142,35.142,0,0,0-5.733-2.422A45.191,45.191,0,0,0,39.2,28.984h8.952A20.577,20.577,0,0,1,43.808,40.185Z" transform="translate(-2.375 -2.375)" fill="#1a1a26"/>
  </g>
</svg>
