<svg xmlns="http://www.w3.org/2000/svg" xmlns:xlink="http://www.w3.org/1999/xlink" width="50" height="50" viewBox="0 0 50 50">
  <defs>
    <clipPath id="clip-Website_Setup">
      <rect width="50" height="50"/>
    </clipPath>
  </defs>
  <g id="Website_Setup" data-name="Website Setup" clip-path="url(#clip-Website_Setup)">
    <g id="Group_8474" data-name="Group 8474" transform="translate(1066.781 -961.991)">
      <path id="Path_8808" data-name="Path 8808" d="M-1050.813,993.233h8.652a2.372,2.372,0,0,0,2.369-2.369v-17.3a2.372,2.372,0,0,0-2.369-2.369h-8.652a2.372,2.372,0,0,0-2.369,2.369v17.3A2.372,2.372,0,0,0-1050.813,993.233Zm2.371-4.736V975.929h3.912V988.5Z" transform="translate(13.355 4.452)" fill="#fff"/>
      <path id="Path_8809" data-name="Path 8809" d="M-1059.212,975.929h8.654a2.37,2.37,0,0,0,2.367-2.369,2.372,2.372,0,0,0-2.367-2.369h-8.654a2.373,2.373,0,0,0-2.369,2.369A2.372,2.372,0,0,0-1059.212,975.929Z" transform="translate(4.452 4.452)" fill="#fff"/>
      <path id="Path_8810" data-name="Path 8810" d="M-1059.212,980.126h8.654a2.37,2.37,0,0,0,2.367-2.367,2.37,2.37,0,0,0-2.367-2.367h-8.654a2.372,2.372,0,0,0-2.369,2.367A2.372,2.372,0,0,0-1059.212,980.126Z" transform="translate(4.452 8.905)" fill="#fff"/>
      <path id="Path_8811" data-name="Path 8811" d="M-1059.212,984.327h8.654a2.372,2.372,0,0,0,2.367-2.369,2.37,2.37,0,0,0-2.367-2.367h-8.654a2.372,2.372,0,0,0-2.369,2.367A2.373,2.373,0,0,0-1059.212,984.327Z" transform="translate(4.452 13.356)" fill="#fff"/>
      <path id="Path_8812" data-name="Path 8812" d="M-1024.476,966.991h-34.61a6.7,6.7,0,0,0-6.695,6.7v25.956a6.7,6.7,0,0,0,6.695,6.695h34.61a6.7,6.7,0,0,0,6.7-6.695V973.686A6.7,6.7,0,0,0-1024.476,966.991Zm-36.565,6.7a1.958,1.958,0,0,1,1.955-1.957h34.61a1.96,1.96,0,0,1,1.955,1.957v25.956a1.96,1.96,0,0,1-1.955,1.959h-34.61a1.959,1.959,0,0,1-1.955-1.959Z" transform="translate(0 0)" fill="#fff"/>
    </g>
  </g>
</svg>
